<?xml version="1.0" encoding="UTF-8"?>
<svg id="Camada_1" data-name="Camada 1" xmlns="http://www.w3.org/2000/svg" viewBox="0 0 2800 1125">
  <defs>
    <style>
      .cls-1, .cls-2 {
        fill: #bf973d;
      }

      .cls-2 {
        font-family: Heebo-Regular, Heebo;
        font-size: 159.7px;
        font-variation-settings: 'wght' 400;
      }

      .cls-3 {
        fill: #fffffd;
      }

      .cls-4 {
        fill: #f5a017;
      }
    </style>
  </defs>
  <g>
    <g>
      <path class="cls-3" d="M196.12,497.43c26.76,0,44.15,7.56,56.7,19.66,12.55,11.95,20.11,28.12,20.87,45.21.91,17.09-4.99,33.87-16.33,46.87-12.85,14.82-32.21,24.5-61.09,24.5h-86.95v45.82h-50.5v-170.72c0-7.56,4.23-11.34,12.25-11.34h125.05ZM197.18,588.91c11.19,0,17.54-3.18,21.77-8.62,3.02-3.63,4.69-8.32,4.54-13,0-4.99-1.51-9.83-4.69-13.76-4.23-4.84-10.58-8.01-21.47-8.01h-84.37c-2.27,0-3.63,1.06-3.63,3.78v39.62h88-.15Z"/>
      <path class="cls-3" d="M412.5,679.48c-33.72,0-58.67-11.34-75.91-29.64-16.63-17.84-25.4-41.43-24.19-65.47,1.21-24.04,12.1-46.72,30.39-63.05,16.78-14.82,39.31-24.04,69.86-24.04h39.62c30.39,0,53.07,9.22,69.86,24.04,18.3,16.33,29.18,39.01,30.24,63.05,1.06,24.04-7.56,47.48-24.19,65.47-17.24,18.3-42.19,29.64-75.91,29.64h-39.77ZM412.5,545.51c-17.09,0-27.52,4.54-35.69,11.79-8.47,7.71-13.61,18.3-13.91,29.64-.45,11.19,3.78,22.23,11.64,30.54,8.01,8.62,20.11,14.06,37.95,14.06h39.62c17.84,0,29.79-5.44,37.95-14.06,7.86-8.32,12.1-19.2,11.64-30.54-.45-11.19-5.44-21.93-13.91-29.64-8.17-7.26-18.75-11.79-35.69-11.79h-39.62Z"/>
      <path class="cls-3" d="M795.97,497.43v48.24h-82.71v133.82h-50.66v-133.82h-83.01v-48.24s216.38,0,216.38,0Z"/>
      <path class="cls-3" d="M1036.24,497.43v48.24h-143.5c-3.02,0-4.54,1.66-4.54,4.54v20.72h147.13v35.08h-147.13v22.08c0,3.18,1.36,4.84,4.54,4.84h143.5v46.57h-172.08c-17.54,0-26.46-8.32-26.46-25.25v-132.16c0-16.48,8.92-24.5,26.76-24.5h171.77v-.15Z"/>
      <path class="cls-3" d="M1132.86,679.48h-50.5v-170.72c0-7.56,4.23-11.34,12.55-11.34h133.97c23.14,0,37.95,6.65,48.24,17.24,9.53,9.68,14.97,22.38,15.12,35.84,0,14.52-4.54,28.28-17.84,37.65,12.55,7.26,18.15,16.94,18.15,37.65v36.29c0,5.75.15,11.49.91,17.24h-51.11c-.6-4.08-.91-8.01-.91-12.1v-36.29c0-11.64-5.9-16.18-20.72-16.18h-88v64.57l.15.15ZM1222.23,573.34c2.72.15,5.44-.3,7.86-1.36,2.42-1.06,4.69-2.57,6.35-4.54,2.27-2.72,3.63-6.05,3.63-9.37,0-3.78-1.36-7.56-4.23-10.28-2.87-3.02-7.26-4.84-13.76-4.84h-85.13c-.6,0-1.21,0-1.66.15-.45.15-1.06.45-1.36.91-.45.45-.76.91-.91,1.36s-.3,1.06-.15,1.66v26.46h89.52l-.15-.15Z"/>
      <path class="cls-3" d="M1538.1,497.43v48.24h-143.5c-3.02,0-4.54,1.66-4.54,4.54v20.72h147.13v35.08h-147.13v22.08c0,3.18,1.36,4.84,4.54,4.84h143.5v46.57h-172.08c-17.54,0-26.46-8.32-26.46-25.25v-132.16c0-16.48,8.92-24.5,26.76-24.5h171.77v-.15Z"/>
    </g>
    <text class="cls-2" transform="translate(779.96 866.52)"><tspan x="0" y="0">consórcio</tspan></text>
    <polygon class="cls-1" points="1549.21 734.7 1549.21 726.53 522.74 729.36 1549.21 734.7"/>
  </g>
  <g>
    <g>
      <path class="cls-3" d="M1897.67,813.86c32.83,19.46,59.32,26.44,67.47,28.18,18.61,3.77,37.21,5.81,56.12,5.81,23.85,0,47.97-3.47,70.65-10.75,39.25-12.49,74.72-35.46,105.85-68.28,27.02-27.91,47.7-61.6,60.49-98.49,11.92-32.82,19.47-67.11,22.95-102-10.15,5.51-20.64,9.88-31.67,13.05-13.96,4.07-35.17,5.24-38.38,5.51-16.87,21.77-43.89,52.32-74.12,67.11-26.15,12.79-54.95,19.46-84.31,19.2-36.04,0-69.48-9.01-96.53-16.86-150.88-44.77-232.32-167.37-245.68-187.7-72.12-109.54-81.1-229.57-81.1-284.53l-1.74.87v-4.07.57c-.87,1.44-1.44,2.9-1.74,4.34-6.11,29.65-20.94,106.94-15.13,193.55,2.34,32.82,9.02,65.37,19.77,96.49h0c16.87,46.21,38.08,90.11,63.4,131.65,0,0,82.84,134.85,203.82,206.63v-.3h-.1l-.03.03Z"/>
      <path class="cls-3" d="M1795.32,538.68c56.12,59.56,116.31,83.4,166.31,98.23,28.49,8.41,59.02,16.26,91.29,16.26,26.15.3,52.34-5.51,76.19-17.13,21.51-10.45,41.89-30.82,56.68-48.51-189.86,15.39-333.19-313.84-18.3-542.28,0,0-11.92-8.71-43.89-2.04l-318.36,80.5-72.95,18.86c-24.42,52.59-35.74,110.71-33.14,168.84.87,18.86,8.15,133.98,96.23,227.57v-.3h-.07Z"/>
      <path class="cls-3" d="M2594.58,554.37c0-15.96-1.17-32.25-3.47-48.24,0,0-2.34-12.22-3.47-18.03-6.41-31.65-16.87-60.46-33.44-81.06-1.74-2.34-2.91-5.24-3.21-8.15,0-2.9.57-5.81,2.34-8.41l22.95-35.46c.3-.57.57-1.17.57-2.04,0-.57,0-1.44-.3-2.04,0-.57-.57-1.17-1.17-1.74-.57-.57-1.17-.87-1.74-.87-9.02-2.6-27.59-5.81-40.99,5.81-.57.57-1.47,0-1.17-.57,3.77-9.32,16.57-39.23,30.53-50.85,2.91-2.34,1.47-6.98-2.61-7.55-14.83-1.74-29.66,1.44-42.45,8.71-1.47.87-2.91-.87-2.04-2.04,13.06-18.6,70.95-45.34,64.57-93.58-.57-4.34-6.98-5.24-9.02-1.44-10.15,19.77-52.04,27.58-73.85,46.78-1.47,1.17-3.47-.3-2.61-1.74,4.64-7.85,11.06-21.2,10.46-34.29,0-4.34-6.11-5.81-8.72-2.34-8.72,13.05-36.91,9.58-88.08,19.2-77.03,14.22-76.46,19.46-117.18,34.56-26.76,10.15-68.31,35.46-93.63,51.72-12.79,8.15-12.49,33.72-15.97,47.68-4.34,18.03-4.64,30.82-29.66,46.21-15.97,9.88-22.95,29.05-15.97,45.61,4.34,10.45,13.96,20.93,34.57,30.52,5.24,2.34,6.41,1.17,2.61-3.21-11.62-12.79-6.41-18.03-2.04-20.63,8.42-5.24,20.94-6.11,42.45-15.12,21.51-9.32,33.14-14.82,41.29-12.79.87,0,2.34.57,3.77.87,32,9.88,43.89,93.02,42.72,99.39-1.17,46.78-9.89,93.02-25.85,136.59-5.51,15.69-12.49,31.08-20.34,45.61-7.85,13.96-57.85,101.13-157.86,133.12-24.68,7.85-50.61,11.92-76.46,11.92-20.04,0-39.82-2.34-59.32-6.11-33.44-6.11-56.68-20.93-70.65-28.75-87.52-50.25-169.52-112.45-180.24-120.6l-2.61-2.04c.57,1.44.87,2.34.87,2.34,83.44,136.29,228.51,254.88,373.91,344.09l32.27,19.77c8.42,5.24,18.04,8.15,27.92,9.01,9.89.57,19.77-1.17,28.76-5.24,0,0,422.74-248.47,422.44-525.42l1.17.87-.1-.07.03.03ZM2275.35,338.46l-34.91,30.52c-.87.57-4.94-2.6-5.24-3.47-2.61-9.01,3.21-18.6,13.06-20.93l26.76-6.68h.3v.3h0v.3h0l.03-.03Z"/>
    </g>
    <path class="cls-4" d="M2209.91,1079.19c.3.3.87.57,1.47.87h1.74c181.98-74.39,407.91-221.42,489.88-401.32,23.55-51.42,34.3-130.78,38.08-178.15.57-6.98-1.47-13.66-5.81-19.2-4.38-5.24-10.46-8.71-17.14-9.58-18.3-16.39-125.69,145.84-359.78,218.69,163.81-25.84,253.39-87.17,239-37.29-60.83,211.94-279.11,352.6-387.74,426.02h.3v-.03Z"/>
  </g>
</svg>