<?xml version="1.0" encoding="UTF-8"?>
<svg id="Camada_1" data-name="Camada 1" xmlns="http://www.w3.org/2000/svg" viewBox="0 0 967.2 156.24">
  <defs>
    <style>
      .cls-1 {
        fill: #fefefe;
      }
    </style>
  </defs>
  <path class="cls-1" d="M687.51,1.79c-14.7,0-24.31,9.35-24.31,23.66s9.61,23.66,24.31,23.66,24.31-9.35,24.31-23.66-9.61-23.66-24.31-23.66ZM687.48,39.7c-8.25,0-13.67-5.67-13.67-14.25s5.42-14.25,13.67-14.25,13.73,5.67,13.73,14.25-5.48,14.25-13.73,14.25Z"/>
  <g>
    <path class="cls-1" d="M69.62,132.33L2.78,27.7c-.33,1.84-.5,3.72-.5,5.63v89.57c0,17.85,14.39,32.33,32.14,32.33h31.21c3.36,0,6-2.92,5.65-6.3l-1.66-16.61v.02Z"/>
    <path class="cls-1" d="M151.85,132.33L218.69,27.7c.33,1.84.5,3.72.5,5.63v89.57c0,17.85-14.39,32.33-32.14,32.33h-31.21c-3.36,0-6-2.92-5.65-6.3l1.66-16.61v.02h0Z"/>
    <path class="cls-1" d="M110.73,44.12c11.83,0,21.42-9.65,21.42-21.55S122.57,1.02,110.73,1.02s-21.42,9.65-21.42,21.55,9.59,21.55,21.42,21.55Z"/>
    <path class="cls-1" d="M172.51,1.02c-3.77,0-7.28,1.87-9.4,5l-52.99,79.37L57.13,6.01c-2.13-3.12-5.63-5-9.4-5h-13.78c-11.14,0-17.77,1.66-23.53,10.31l79.69,123.28c3.88,5.84,13.23,14.76,20.01,14.76s16.1-8.95,20.02-14.77L209.82,11.33c-5.76-8.66-12.4-10.31-23.53-10.31h-13.78Z"/>
  </g>
  <polygon class="cls-1" points="294.92 2.82 279.51 22.03 264.1 2.82 254.62 2.82 254.62 47.95 265.13 47.95 265.13 19.65 278.54 35.96 280.6 35.96 293.88 19.71 293.88 47.95 304.39 47.95 304.39 2.82 294.92 2.82 294.92 2.82"/>
  <path class="cls-1" d="M339.7,1.72c-14.7,0-24.31,9.35-24.31,23.66s9.61,23.66,24.31,23.66,24.31-9.35,24.31-23.66-9.61-23.66-24.31-23.66ZM339.7,39.64c-8.25,0-13.67-5.67-13.67-14.25s5.42-14.25,13.67-14.25,13.73,5.67,13.73,14.25-5.48,14.25-13.73,14.25Z"/>
  <polygon class="cls-1" points="411.63 2.82 405.64 18.17 399.12 35.7 392.74 18.17 386.68 2.82 375.01 2.82 393.58 47.95 404.73 47.95 423.3 2.82 411.63 2.82 411.63 2.82"/>
  <rect class="cls-1" x="434.3" y="2.82" width="10.57" height="45.13"/>
  <polygon class="cls-1" points="496.18 2.82 480.77 22.03 465.36 2.82 455.88 2.82 455.88 47.95 466.39 47.95 466.39 19.65 479.8 35.96 481.86 35.96 495.14 19.71 495.14 47.95 505.65 47.95 505.65 2.82 496.18 2.82 496.18 2.82"/>
  <polygon class="cls-1" points="526.91 39.06 526.91 29.32 549.8 29.32 549.8 20.81 526.91 20.81 526.91 11.65 551.09 11.65 551.09 2.82 516.65 2.82 516.65 47.95 551.79 47.95 551.79 39.06 526.91 39.06 526.91 39.06"/>
  <polygon class="cls-1" points="592.58 2.82 592.58 18.81 592.71 30.87 572.27 2.82 562.79 2.82 562.79 47.95 573.3 47.95 573.3 32.22 573.18 20.04 593.61 47.95 603.09 47.95 603.09 2.82 592.58 2.82"/>
  <polygon class="cls-1" points="652.2 2.82 614.09 2.82 614.09 12.04 627.83 12.04 627.83 47.96 638.4 47.96 638.4 12.04 652.2 12.04 652.2 2.82"/>
  <rect class="cls-1" x="739.47" y="19.53" width="224.73" height="11.4" rx="1.98" ry="1.98"/>
  <g>
    <path class="cls-1" d="M566.25,155.22c15.84,0,26.64-8.14,26.64-20.18,0-11.42-8.67-18.32-24.96-20-7.88-.8-10.71-2.3-10.71-5.66s4.07-5.31,10.8-5.31c5.49,0,10.62,1.59,15.05,4.6l7.7-11.77c-6.2-4.34-14.78-6.81-23.63-6.81-15.75,0-26.2,7.97-26.2,20,0,11.42,7.61,17.26,24.6,18.85,7.61.71,10.89,2.48,10.89,5.93s-3.89,5.58-10.27,5.58c-6.99,0-12.83-1.95-18.32-6.11l-8.67,12.04c6.64,5.58,16.73,8.85,27.08,8.85h0Z"/>
    <path class="cls-1" d="M484.89,155.22c15.84,0,26.64-8.14,26.64-20.18,0-11.42-8.67-18.32-24.96-20-7.88-.8-10.71-2.3-10.71-5.66s4.07-5.31,10.8-5.31c5.49,0,10.62,1.59,15.05,4.6l7.7-11.77c-6.2-4.34-14.78-6.81-23.63-6.81-15.75,0-26.2,7.97-26.2,20,0,11.42,7.61,17.26,24.6,18.85,7.61.71,10.89,2.48,10.89,5.93s-3.89,5.58-10.27,5.58c-6.99,0-12.83-1.95-18.32-6.11l-8.67,12.04c6.64,5.58,16.73,8.85,27.08,8.85h0Z"/>
    <polygon class="cls-1" points="625.07 140.63 625.07 129.05 656.58 129.05 656.58 115.33 625.07 115.33 625.07 104.48 658.44 104.48 658.44 90.21 608.11 90.21 608.11 155.09 659.74 155.09 659.74 140.63 625.07 140.63 625.07 140.63"/>
    <path class="cls-1" d="M702.33,116.22v12.94h16.48v7.89c-3.01,2.57-7.71,4.08-13.12,4.08-10.19,0-17.02-7.36-17.02-18.43,0-11.7,6.38-18.43,17.64-18.43,5.32,0,10.46,2.04,14.18,5.76l10.01-9.66c-6.74-7.27-14.27-10.28-24.02-10.28-20.56,0-34.3,13.29-34.3,32.61s12.85,32.52,33.06,32.52c11.52,0,21.45-3.9,27.38-10.63v-28.36h-30.31Z"/>
    <path class="cls-1" d="M778.75,155.22c19.12,0,29.77-10.65,29.77-29.41v-35.69h-17.3v35.69c0,9.1-4.64,14.38-12.47,14.38s-12.47-5.28-12.47-14.38v-35.69h-17.3v35.69c0,18.75,10.65,29.41,29.77,29.41h0Z"/>
    <path class="cls-1" d="M868.24,132.34c8.99-3.34,13.72-10.38,13.72-19.93,0-13.16-9.27-22.25-23.64-22.25h-32.16v64.88h17.61v-20.95h6.49l15.11,20.95h20.58l-17.7-22.71ZM864.62,112.69c0,5.1-3.15,7.88-8.99,7.88h-12.05v-15.76h12.05c5.84,0,8.99,2.78,8.99,7.88h0Z"/>
    <path class="cls-1" d="M964.18,122.65c0-19.82-13.36-32.57-34.16-32.57s-34.16,12.74-34.16,32.57,13.36,32.57,34.16,32.57,34.16-12.74,34.16-32.57ZM930.02,140.44c-10.53,0-17.35-6.99-17.35-17.79s6.81-17.79,17.35-17.79,17.35,6.99,17.35,17.79-6.81,17.79-17.35,17.79Z"/>
    <polygon class="cls-1" points="311.86 90.4 291.2 116.04 270.55 90.4 254.6 90.4 254.6 155.22 272.07 155.22 272.07 116.53 289.78 138 292.82 138 310.34 116.63 310.34 155.22 327.81 155.22 327.81 90.4 311.86 90.4 311.86 90.4"/>
    <rect class="cls-1" x="424.77" y="90.08" width="17.57" height="65.14"/>
    <path class="cls-1" d="M396.3,155.22h18.58l-29.08-65.14h-18.61l-29.08,65.14h18.58l4.85-10.87h29.9l4.85,10.87ZM368.18,129.47l8.31-18.62,8.31,18.62h-16.62Z"/>
  </g>
</svg>