<?xml version="1.0" encoding="UTF-8"?>
<svg id="Camada_1" data-name="Camada 1" xmlns="http://www.w3.org/2000/svg" viewBox="0 0 824.98 107.9">
  <defs>
    <style>
      .cls-1 {
        fill: #fff;
      }

      .cls-2 {
        fill: #004885;
      }

      .cls-3 {
        fill: #1d1d1b;
      }

      .cls-4 {
        fill: #ffb500;
      }
    </style>
  </defs>
  <g id="Camada_2" data-name="Camada 2">
    <g>
      <path class="cls-4" d="M229.8,107.8h-23.5c-3,0-5.3-.9-6.7-2.5-1.4-1.7-1.8-4-1.3-6.9l4.7-26.3h-22.6c-2.9,0-5.1-.8-6.6-2.4-1.4-1.6-2-4-1.6-6.9l3.4-19.4c1.1-5.5,4.5-8.5,9.7-8.5h24.3l4.6-26c1.1-5.6,4.5-8.7,9.7-8.7h23.3c3.2,0,5.5.9,6.9,2.6,1.4,1.7,1.8,4,1.3,6.9l-4.5,25.2h22.6c3,0,5.2.8,6.6,2.4s1.9,3.8,1.6,6.7l-3.4,19.4c-1.1,5.6-4.6,8.7-9.9,8.7h-24l-4.8,27.1c-1,5.6-4.5,8.7-9.7,8.7h-.1v-.1ZM185.3,39.3c-3.1,0-4.7,1.4-5.3,4.8l-3.4,19.2c-.1,1-.1,2.5.6,3.3s2.2,1,3.3,1h27.9l-5.6,31.5c-.2,1.1-.3,2.6.3,3.3.6.8,2.1.9,3.3.9h23.5c2.2,0,4.5-.6,5.3-5l5.5-30.7h27.8c3.2,0,4.9-1.5,5.5-5l3.4-19.2c.1-.9.1-2.3-.5-3.1-.7-.8-2.2-.9-3.3-.9h-27.9l5.4-30.4c.2-1.1.3-2.5-.3-3.3-.7-.8-2.3-1-3.5-1h-23.3c-2.2,0-4.5.6-5.3,5l-5.2,29.6h-28.2,0Z"/>
      <path class="cls-2" d="M94,94.6c-24.3,0-44.1-19.8-44.1-44.1S69.7,6.4,94,6.4s44.1,19.8,44.1,44.1-19.8,44.1-44.1,44.1ZM94,10.8c-21.9,0-39.7,17.8-39.7,39.7s17.8,39.7,39.7,39.7,39.7-17.8,39.7-39.7S115.9,10.8,94,10.8Z"/>
      <path class="cls-2" d="M24.7,80.3v-17.7h9.7c2.6,0,4.8-.4,6.4-1.3,1.6-.9,2.8-2,3.6-3.5s1.2-3.2,1.2-5.2-.4-4.1-1.2-5.9-2-3.3-3.6-4.4-3.8-1.7-6.4-1.7h-4.5c-4.4,0-8,3.6-8,8v59.2H0V23h34.4c6.9,0,12.8,1.3,17.8,3.8,5,2.6,8.8,6.1,11.5,10.5s4,9.5,4,15.2-1.4,10.4-4,14.5c-2.7,4.2-6.5,7.4-11.5,9.7-5,2.3-10.9,3.5-17.8,3.5h-9.7v.1Z"/>
      <path class="cls-2" d="M164.8,27.5v17.7h-9.7c-2.6,0-4.8.4-6.4,1.3s-2.8,2-3.6,3.5c-.8,1.5-1.2,3.2-1.2,5.2s.4,4.1,1.2,5.9c.8,1.8,2,3.3,3.6,4.4s3.8,1.7,6.4,1.7h4.5c4.4,0,8-3.6,8-8V0h21.9v84.8h-34.4c-6.9,0-12.8-1.3-17.8-3.8-5-2.6-8.8-6.1-11.5-10.5s-4-9.5-4-15.2,1.4-10.4,4-14.5c2.7-4.2,6.5-7.4,11.5-9.7,5-2.3,10.9-3.5,17.8-3.5h9.7v-.1Z"/>
      <g id="Camada_1-23" data-name="Camada 1-23">
        <path class="cls-2" d="M111.3,62.4c-7,0-7.4-4.1,0-2.3,1.1-3.6-5.5-2.1-5.7-4-.3-2.1,3.8-.8,4.9-.8s.4-1.5-.1-1.9c-1.5-1.2-5.9-.2-4.7-2.9.8-.7,3,0,4.2,0s.9.4.9-.4c0-2.7-5.2-1.8-5.6-3.3-.5-1.9,2-1.3,3.1-1.1.6,0,2.1,1.2,2.1,0,0-3-4.9-2.1-5.3-3.5-1-2.8,3.3-.9,4.4-.7.5,0,.6,0,.6-.4,0-2.9-4.8-2.2-5.3-3.5-1.3-3,4.9-.3,4.9-.8-.1-.8-.6-4.5-1-4.9-1-1.2-.2,1.1-.2,1.2,0,.9-.3,2.7-1.5,1.7-.5-.4-.5-3.3-.9-4.3-.5-1.7-2.1-3.7-4-3.8,1.2.9,3.5,7.1,1.5,7.4-1.9.3-1.3-3.2-1.9-4.6-.9-2.1-3.1-3.6-5.3-3.9,1.6,1,3.6,8.1.5,7.4-1.1-.2-.6-3.8-1.8-5.4-1.9-2.3-4.3-1.5-6.7-.8-6.6,1.8-13,6.3-11.9,14,.9-.4,7.8-4.7,7.1-1.6-.4,1.7-7.4,2.4-6.9,5.4,0,.3.2.5.6.5.8,0,7.2-4.2,6.8-1.1-.2,1.7-7.4,2.2-7,5.3.2,1.2,1.9-.3,2.5-.5,1.1-.4,3.5-1.4,4.4-1,.7.3.5,1.3,0,1.8-1.2,1-6.9,1.3-6.5,4,0,.4.3.6.7.6.9,0,7.1-3.9,6.6-.5-.2,1.1-6,1.9-6.7,3.5-.3.6-.4,1.7.5,1.8.9,0,7.1-3.9,6.6-.5,0,.3-.1.4-.4.6-.9.7-5.6,1.6-6.2,2.4-.3.3-.1,2.1,0,2.3.6.6,7.5-3.8,7-.5-.2,1.9-7.4.8-6.6,5.3.9,4.7,4.4,6.5,8.9,6.8,7.3.4,13.1,0,13.6-.2,7.5-1.7,12.5-2.8,10.6-12.3l-.3-.2h0l-.5-.4h0v.1ZM88.2,36.2c2.3-1.2,12.9-2.2,14.3-.4,2.1,2.6-4.4,1.2-5.2,1.2h-2.6c-1.9,0-5.1,1.3-6.3,1.2-1.4,0-1.7-1.3-.2-2.1h0v.1ZM94.2,39.8c1.4,0,8.2-.3,8.8.7.2.3-.1,1.8-.8,1.8-4.5-.7-9-.3-13.4.9-4.2-2.1,3.7-3.2,5.3-3.4h.1ZM88.2,47.7c-.6-.8-.1-1.4.7-1.8,2.1-1,9.7-1.8,12-1.4,2,.3,3.6,2.3.9,2.6-2.3.2-4.8-.4-7.6,0-1.1,0-5.4,1.4-6,.6h0ZM88.7,51c1-1,9-1.7,10.7-1.6,1.2,0,5,0,4.1,1.9-.5,1-5.5.3-7,.4-2.4,0-4.7.7-7,1.2-1,0-1.5-1.2-.9-1.9h.1ZM89.3,55.7c1.6-1.1,9.6-1.6,11.7-1.5.9,0,2.1,0,2.7.7.5.7,0,1.6-.8,1.7-1.7.2-4.4-.2-6.4,0-1.6,0-6.1,1.3-7.1.9s-.9-1.2,0-1.8h-.1ZM90.2,62.5c-.2,0-1-.3-1-.4-.2-.4.1-1.4.5-1.7.6-.5,8.7-1.3,10.1-1.4.9,0,6.4,0,4.1,2-.6.5-5.1.3-6.4.4-2.1.2-5.6,1.2-7.3,1.1h0ZM92.2,73.6c-.4-.3,0-.9.2-1.1,1.2-.8,3.7-.3,5.1-2.2,1.8-2.5.4-5,.9-6.4.2-.4,1.2-.8,1.7-.5,1.3.9.5,6.5-.4,7.9-1.1,1.6-5.9,3.6-7.6,2.3,0,0,.1,0,.1,0ZM99.7,74.2c-1.9.6-.8-1-.8-1,1-.9,2.3-.9,3.4-1.7,3.3-2.4,1.3-6.8,2.3-7.9.4-.5,1.6-.2,1.8.8.4,1.8-.1,5.4-1.2,6.9h0s-1.3,1.6-5.4,3h-.1v-.1ZM108.1,71.9c-.4.4-4.1,2.7-4.3,1.7,0-.7,2.6-1.8,2.8-2,3-2.4,1-5,1.8-7.4.3-.8.7-.8,1.4-.6l.4.3c.4,3.2.5,6-2.1,8h0Z"/>
      </g>
      <g>
        <path class="cls-3" d="M5.2,13.7c0,.4,0,.8-.2,1.1s-.4.5-.7.7c-.3.2-.6.2-1,.2-.6,0-1-.2-1.4-.5s-.5-.8-.5-1.4H0C0,14.5,0,15,.4,15.5c.3.4.7.8,1.2,1s1.1.3,1.7.3,1.2,0,1.7-.4.9-.6,1.2-1.1c.3-.5.4-1,.4-1.7v-7.3h-1.4v7.3h0v.1Z"/>
        <path class="cls-3" d="M14.8,13.4c0,.5,0,1-.3,1.3-.2.4-.5.6-.8.8s-.8.3-1.3.3-.9,0-1.2-.3-.6-.4-.8-.8c-.2-.3-.3-.8-.3-1.3v-7h-1.4v7c0,.8.2,1.4.5,1.9s.8.9,1.3,1.2,1.2.4,1.9.4,1.3,0,1.9-.4,1-.6,1.4-1.2c.3-.5.5-1.2.5-1.9v-7h-1.4v7h0Z"/>
        <polygon class="cls-3" points="24.9 14.4 19.7 6.4 18.4 6.4 18.4 16.7 19.7 16.7 19.7 8.7 24.9 16.7 26.3 16.7 26.3 6.4 24.9 6.4 24.9 14.4"/>
        <polygon class="cls-3" points="31.2 6.4 27.9 6.4 27.9 7.5 31.2 7.5 31.2 16.7 32.6 16.7 32.6 7.5 35.9 7.5 35.9 6.4 32.6 6.4 31.2 6.4"/>
        <path class="cls-3" d="M43.2,6.8c-.6-.4-1.4-.6-2.2-.6s-1.5.2-2.2.6c-.6.4-1.1,1-1.5,1.7s-.5,1.6-.5,2.7v.7c0,1,.2,1.9.5,2.7.4.7.8,1.3,1.5,1.7.6.4,1.4.6,2.2.6s1.6-.2,2.2-.6c.6-.4,1.1-1,1.4-1.7.3-.7.5-1.6.5-2.7v-.7c0-1-.2-1.9-.5-2.7-.3-.7-.8-1.3-1.4-1.7ZM43.8,11.9c0,.8-.1,1.5-.3,2.1s-.5,1-.9,1.3-.9.4-1.5.4-1.1,0-1.5-.4c-.4-.3-.7-.7-1-1.3s-.3-1.3-.3-2.1v-.7c0-.8.1-1.5.3-2.1s.6-1,1-1.3.9-.4,1.5-.4,1.1,0,1.5.4.7.7,1,1.3c.2.6.3,1.3.3,2.1v.7h-.1Z"/>
        <path class="cls-3" d="M53.8,12.7c-.2-.4-.6-.7-1.1-1s-1.1-.5-1.9-.8c-.6-.2-1-.3-1.4-.5s-.6-.4-.8-.6c-.2-.2-.2-.5-.2-.8s0-.6.2-.9c.2-.3.4-.4.7-.6.3,0,.7-.2,1.2-.2s.9,0,1.3.3.6.4.7.7.2.6.2,1h1.4c0-.5-.1-1-.4-1.5-.3-.5-.7-.9-1.2-1.2s-1.2-.4-2-.4-1.3,0-1.8.4c-.5.2-.9.6-1.2,1s-.4.9-.4,1.4,0,.8.2,1.1.4.6.7.8.6.5,1.1.6.9.4,1.4.5c.7.2,1.2.4,1.5.6s.6.4.7.6c.1.2.2.5.2.8s0,.6-.3.9c-.2.2-.4.4-.8.6s-.7.2-1.2.2h-1c-.3,0-.6-.2-.8-.4s-.4-.4-.6-.6c-.1-.3-.2-.6-.2-.9h-1.4c0,.5.1,1,.3,1.4s.5.7.9,1,.8.5,1.3.6.9.2,1.4.2,1.4,0,1.9-.3,1-.5,1.3-1,.4-.9.4-1.5-.1-1-.4-1.4h.1v-.1Z"/>
      </g>
    </g>
  </g>
  <g id="Camada_2-2" data-name="Camada 2">
    <g>
      <path class="cls-4" d="M773,107.8h-23.5c-3,0-5.3-.9-6.7-2.5-1.4-1.7-1.8-4-1.3-6.9l4.7-26.3h-22.6c-2.9,0-5.1-.8-6.6-2.4-1.4-1.6-2-4-1.6-6.9l3.4-19.4c1.1-5.5,4.5-8.5,9.7-8.5h24.3l4.6-26c1.1-5.6,4.5-8.7,9.7-8.7h23.3c3.2,0,5.5.9,6.9,2.6,1.4,1.7,1.8,4,1.3,6.9l-4.5,25.2h22.6c3,0,5.2.8,6.6,2.4s1.9,3.8,1.6,6.7l-3.4,19.4c-1.1,5.6-4.6,8.7-9.9,8.7h-24l-4.8,27.1c-1,5.6-4.5,8.7-9.7,8.7h-.1v-.1ZM728.5,39.3c-3.1,0-4.7,1.4-5.3,4.8l-3.4,19.2c-.1,1-.1,2.5.6,3.3s2.2,1,3.3,1h27.9l-5.6,31.5c-.2,1.1-.3,2.6.3,3.3.6.8,2.1.9,3.3.9h23.5c2.2,0,4.5-.6,5.3-5l5.5-30.7h27.8c3.2,0,4.9-1.5,5.5-5l3.4-19.2c.1-.9.1-2.3-.5-3.1-.7-.8-2.2-.9-3.3-.9h-27.9l5.4-30.4c.2-1.1.3-2.5-.3-3.3-.7-.8-2.3-1-3.5-1h-23.3c-2.2,0-4.5.6-5.3,5l-5.2,29.6h-28.2,0Z"/>
      <path class="cls-1" d="M637.2,94.6c-24.3,0-44.1-19.8-44.1-44.1s19.8-44.1,44.1-44.1,44.1,19.8,44.1,44.1-19.8,44.1-44.1,44.1ZM637.2,10.8c-21.9,0-39.7,17.8-39.7,39.7s17.8,39.7,39.7,39.7,39.7-17.8,39.7-39.7-17.8-39.7-39.7-39.7Z"/>
      <path class="cls-1" d="M567.9,80.3v-17.7h9.7c2.6,0,4.8-.4,6.4-1.3,1.6-.9,2.8-2,3.6-3.5s1.2-3.2,1.2-5.2-.4-4.1-1.2-5.9-2-3.3-3.6-4.4-3.8-1.7-6.4-1.7h-4.5c-4.4,0-8,3.6-8,8v59.2h-21.9V23h34.4c6.9,0,12.8,1.3,17.8,3.8,5,2.6,8.8,6.1,11.5,10.5s4,9.5,4,15.2-1.4,10.4-4,14.5c-2.7,4.2-6.5,7.4-11.5,9.7-5,2.3-10.9,3.5-17.8,3.5h-9.7v.1Z"/>
      <path class="cls-1" d="M708,27.5v17.7h-9.7c-2.6,0-4.8.4-6.4,1.3s-2.8,2-3.6,3.5c-.8,1.5-1.2,3.2-1.2,5.2s.4,4.1,1.2,5.9c.8,1.8,2,3.3,3.6,4.4s3.8,1.7,6.4,1.7h4.5c4.4,0,8-3.6,8-8V0h21.9v84.8h-34.4c-6.9,0-12.8-1.3-17.8-3.8-5-2.6-8.8-6.1-11.5-10.5s-4-9.5-4-15.2,1.4-10.4,4-14.5c2.7-4.2,6.5-7.4,11.5-9.7,5-2.3,10.9-3.5,17.8-3.5h9.7v-.1Z"/>
      <g id="Camada_1-23-2" data-name="Camada 1-23">
        <path class="cls-1" d="M654.5,62.4c-7,0-7.4-4.1,0-2.3,1.1-3.6-5.5-2.1-5.7-4-.3-2.1,3.8-.8,4.9-.8s.4-1.5-.1-1.9c-1.5-1.2-5.9-.2-4.7-2.9.8-.7,3,0,4.2,0s.9.4.9-.4c0-2.7-5.2-1.8-5.6-3.3-.5-1.9,2-1.3,3.1-1.1.6,0,2.1,1.2,2.1,0,0-3-4.9-2.1-5.3-3.5-1-2.8,3.3-.9,4.4-.7.5,0,.6,0,.6-.4,0-2.9-4.8-2.2-5.3-3.5-1.3-3,4.9-.3,4.9-.8-.1-.8-.6-4.5-1-4.9-1-1.2-.2,1.1-.2,1.2,0,.9-.3,2.7-1.5,1.7-.5-.4-.5-3.3-.9-4.3-.5-1.7-2.1-3.7-4-3.8,1.2.9,3.5,7.1,1.5,7.4-1.9.3-1.3-3.2-1.9-4.6-.9-2.1-3.1-3.6-5.3-3.9,1.6,1,3.6,8.1.5,7.4-1.1-.2-.6-3.8-1.8-5.4-1.9-2.3-4.3-1.5-6.7-.8-6.6,1.8-13,6.3-11.9,14,.9-.4,7.8-4.7,7.1-1.6-.4,1.7-7.4,2.4-6.9,5.4,0,.3.2.5.6.5.8,0,7.2-4.2,6.8-1.1-.2,1.7-7.4,2.2-7,5.3.2,1.2,1.9-.3,2.5-.5,1.1-.4,3.5-1.4,4.4-1,.7.3.5,1.3,0,1.8-1.2,1-6.9,1.3-6.5,4,0,.4.3.6.7.6.9,0,7.1-3.9,6.6-.5-.2,1.1-6,1.9-6.7,3.5-.3.6-.4,1.7.5,1.8.9,0,7.1-3.9,6.6-.5,0,.3-.1.4-.4.6-.9.7-5.6,1.6-6.2,2.4-.3.3-.1,2.1,0,2.3.6.6,7.5-3.8,7-.5-.2,1.9-7.4.8-6.6,5.3.9,4.7,4.4,6.5,8.9,6.8,7.3.4,13.1,0,13.6-.2,7.5-1.7,12.5-2.8,10.6-12.3l-.3-.2h0l-.5-.4h0v.1ZM631.4,36.2c2.3-1.2,12.9-2.2,14.3-.4,2.1,2.6-4.4,1.2-5.2,1.2h-2.6c-1.9,0-5.1,1.3-6.3,1.2-1.4,0-1.7-1.3-.2-2.1h0v.1ZM637.4,39.8c1.4,0,8.2-.3,8.8.7.2.3-.1,1.8-.8,1.8-4.5-.7-9-.3-13.4.9-4.2-2.1,3.7-3.2,5.3-3.4h.1ZM631.4,47.7c-.6-.8-.1-1.4.7-1.8,2.1-1,9.7-1.8,12-1.4,2,.3,3.6,2.3.9,2.6-2.3.2-4.8-.4-7.6,0-1.1,0-5.4,1.4-6,.6h0ZM631.9,51c1-1,9-1.7,10.7-1.6,1.2,0,5,0,4.1,1.9-.5,1-5.5.3-7,.4-2.4,0-4.7.7-7,1.2-1,0-1.5-1.2-.9-1.9h.1ZM632.5,55.7c1.6-1.1,9.6-1.6,11.7-1.5.9,0,2.1,0,2.7.7.5.7,0,1.6-.8,1.7-1.7.2-4.4-.2-6.4,0-1.6,0-6.1,1.3-7.1.9s-.9-1.2,0-1.8h-.1ZM633.4,62.5c-.2,0-1-.3-1-.4-.2-.4.1-1.4.5-1.7.6-.5,8.7-1.3,10.1-1.4.9,0,6.4,0,4.1,2-.6.5-5.1.3-6.4.4-2.1.2-5.6,1.2-7.3,1.1h0ZM635.4,73.6c-.4-.3,0-.9.2-1.1,1.2-.8,3.7-.3,5.1-2.2,1.8-2.5.4-5,.9-6.4.2-.4,1.2-.8,1.7-.5,1.3.9.5,6.5-.4,7.9-1.1,1.6-5.9,3.6-7.6,2.3,0,0,.1,0,.1,0ZM642.9,74.2c-1.9.6-.8-1-.8-1,1-.9,2.3-.9,3.4-1.7,3.3-2.4,1.3-6.8,2.3-7.9.4-.5,1.6-.2,1.8.8.4,1.8-.1,5.4-1.2,6.9h0s-1.3,1.6-5.4,3h-.1v-.1ZM651.3,71.9c-.4.4-4.1,2.7-4.3,1.7,0-.7,2.6-1.8,2.8-2,3-2.4,1-5,1.8-7.4.3-.8.7-.8,1.4-.6l.4.3c.4,3.2.5,6-2.1,8h0Z"/>
      </g>
      <g>
        <path class="cls-1" d="M548.4,13.7c0,.4,0,.8-.2,1.1s-.4.5-.7.7c-.3.2-.6.2-1,.2-.6,0-1-.2-1.4-.5s-.5-.8-.5-1.4h-1.4c0,.7,0,1.2.4,1.7.3.4.7.8,1.2,1s1.1.3,1.7.3,1.2,0,1.7-.4.9-.6,1.2-1.1c.3-.5.4-1,.4-1.7v-7.3h-1.4v7.3h0v.1Z"/>
        <path class="cls-1" d="M558,13.4c0,.5,0,1-.3,1.3-.2.4-.5.6-.8.8s-.8.3-1.3.3-.9,0-1.2-.3-.6-.4-.8-.8c-.2-.3-.3-.8-.3-1.3v-7h-1.4v7c0,.8.2,1.4.5,1.9s.8.9,1.3,1.2,1.2.4,1.9.4,1.3,0,1.9-.4,1-.6,1.4-1.2c.3-.5.5-1.2.5-1.9v-7h-1.4v7h0Z"/>
        <polygon class="cls-1" points="568.1 14.4 562.9 6.4 561.6 6.4 561.6 16.7 562.9 16.7 562.9 8.7 568.1 16.7 569.5 16.7 569.5 6.4 568.1 6.4 568.1 14.4"/>
        <polygon class="cls-1" points="574.4 6.4 571.1 6.4 571.1 7.5 574.4 7.5 574.4 16.7 575.8 16.7 575.8 7.5 579.1 7.5 579.1 6.4 575.8 6.4 574.4 6.4"/>
        <path class="cls-1" d="M586.4,6.8c-.6-.4-1.4-.6-2.2-.6s-1.5.2-2.2.6c-.6.4-1.1,1-1.5,1.7s-.5,1.6-.5,2.7v.7c0,1,.2,1.9.5,2.7.4.7.8,1.3,1.5,1.7.6.4,1.4.6,2.2.6s1.6-.2,2.2-.6c.6-.4,1.1-1,1.4-1.7.3-.7.5-1.6.5-2.7v-.7c0-1-.2-1.9-.5-2.7-.3-.7-.8-1.3-1.4-1.7ZM587,11.9c0,.8-.1,1.5-.3,2.1s-.5,1-.9,1.3-.9.4-1.5.4-1.1,0-1.5-.4c-.4-.3-.7-.7-1-1.3s-.3-1.3-.3-2.1v-.7c0-.8.1-1.5.3-2.1s.6-1,1-1.3.9-.4,1.5-.4,1.1,0,1.5.4.7.7,1,1.3c.2.6.3,1.3.3,2.1v.7h-.1Z"/>
        <path class="cls-1" d="M597,12.7c-.2-.4-.6-.7-1.1-1s-1.1-.5-1.9-.8c-.6-.2-1-.3-1.4-.5s-.6-.4-.8-.6c-.2-.2-.2-.5-.2-.8s0-.6.2-.9c.2-.3.4-.4.7-.6.3,0,.7-.2,1.2-.2s.9,0,1.3.3.6.4.7.7.2.6.2,1h1.4c0-.5-.1-1-.4-1.5-.3-.5-.7-.9-1.2-1.2s-1.2-.4-2-.4-1.3,0-1.8.4c-.5.2-.9.6-1.2,1s-.4.9-.4,1.4,0,.8.2,1.1.4.6.7.8.6.5,1.1.6.9.4,1.4.5c.7.2,1.2.4,1.5.6s.6.4.7.6c.1.2.2.5.2.8s0,.6-.3.9c-.2.2-.4.4-.8.6s-.7.2-1.2.2h-1c-.3,0-.6-.2-.8-.4s-.4-.4-.6-.6c-.1-.3-.2-.6-.2-.9h-1.4c0,.5.1,1,.3,1.4s.5.7.9,1,.8.5,1.3.6.9.2,1.4.2,1.4,0,1.9-.3,1-.5,1.3-1,.4-.9.4-1.5-.1-1-.4-1.4h.1v-.1Z"/>
      </g>
    </g>
  </g>
</svg>